<svg width="225" height="64" viewBox="0 0 225 64" fill="none" xmlns="http://www.w3.org/2000/svg">
<path d="M224.882 57.0669C224.882 60.5795 221.987 63.4247 218.406 63.4247H6.48421C2.90514 63.4247 0 60.5795 0 57.0669V6.36604C0 2.85517 2.90514 0 6.48421 0H218.404C221.987 0 224.88 2.85517 224.88 6.36604L224.882 57.0669Z" fill="black"/>
<path d="M49.4875 31.3562C49.4387 26.0453 53.9329 23.4616 54.1384 23.3413C51.5932 19.7112 47.648 19.2152 46.2617 19.1756C42.9483 18.8345 39.7342 21.1151 38.0463 21.1151C36.3248 21.1151 33.7256 19.2086 30.9242 19.2646C27.3194 19.319 23.947 21.3606 22.0974 24.531C18.2803 30.9953 21.1271 40.4948 24.7842 45.72C26.6136 48.279 28.7512 51.1363 31.5492 51.0358C34.2865 50.9254 35.309 49.3287 38.6123 49.3287C41.8853 49.3287 42.8455 51.0358 45.6991 50.9715C48.6368 50.9254 50.4864 48.401 52.2518 45.8189C54.3658 42.8858 55.2148 39.9972 55.2485 39.8489C55.1795 39.8258 49.5431 37.7216 49.4875 31.3562Z" fill="white"/>
<path d="M44.0971 15.7383C45.5694 13.9373 46.5767 11.487 46.2971 9.00049C44.1662 9.09276 41.5013 10.4423 39.9667 12.2038C38.609 13.756 37.3961 16.3002 37.7094 18.6928C40.1031 18.8675 42.5608 17.5114 44.0971 15.7383Z" fill="white"/>
<path d="M89.1015 50.6701H85.276L83.1805 44.2289H75.8967L73.9005 50.6701H70.1761L77.3925 28.7412H81.8497L89.1015 50.6701ZM82.5488 41.5265L80.6537 35.8004C80.4533 35.2154 80.0776 33.8379 79.5234 31.6693H79.456C79.2354 32.602 78.8799 33.9796 78.3914 35.8004L76.53 41.5265H82.5488Z" fill="white"/>
<path d="M107.661 42.5685C107.661 45.2577 106.918 47.3834 105.432 48.9439C104.102 50.333 102.449 51.0267 100.477 51.0267C98.3473 51.0267 96.8178 50.2786 95.8862 48.7824H95.8189V57.112H92.2275V40.0622C92.2275 38.3716 92.182 36.6365 92.0944 34.8568H95.2529L95.4533 37.3631H95.5207C96.7184 35.4748 98.536 34.5322 100.975 34.5322C102.882 34.5322 104.474 35.2688 105.747 36.7436C107.024 38.22 107.661 40.1611 107.661 42.5685ZM104.002 42.6971C104.002 41.158 103.648 39.8892 102.938 38.8907C102.161 37.8492 101.118 37.3285 99.8111 37.3285C98.9251 37.3285 98.1199 37.6186 97.4006 38.1903C96.6796 38.7671 96.208 39.5201 95.9873 40.4528C95.8761 40.8878 95.8205 41.2437 95.8205 41.5238V44.1603C95.8205 45.3105 96.181 46.281 96.902 47.0736C97.623 47.8662 98.5596 48.2617 99.7118 48.2617C101.064 48.2617 102.117 47.7509 102.87 46.7325C103.625 45.7125 104.002 44.3679 104.002 42.6971Z" fill="white"/>
<path d="M126.252 42.5685C126.252 45.2577 125.509 47.3834 124.022 48.9439C122.693 50.333 121.04 51.0267 119.068 51.0267C116.939 51.0267 115.409 50.2786 114.479 48.7824H114.412V57.112H110.821V40.0622C110.821 38.3716 110.775 36.6365 110.688 34.8568H113.846L114.046 37.3631H114.114C115.31 35.4748 117.127 34.5322 119.568 34.5322C121.473 34.5322 123.065 35.2688 124.342 36.7436C125.614 38.22 126.252 40.1611 126.252 42.5685ZM122.594 42.6971C122.594 41.158 122.238 39.8892 121.527 38.8907C120.751 37.8492 119.711 37.3285 118.403 37.3285C117.515 37.3285 116.711 37.6186 115.99 38.1903C115.269 38.7671 114.799 39.5201 114.579 40.4528C114.469 40.8878 114.412 41.2437 114.412 41.5238V44.1603C114.412 45.3105 114.772 46.281 115.49 47.0736C116.211 47.8646 117.148 48.2617 118.303 48.2617C119.656 48.2617 120.709 47.7509 121.462 46.7325C122.216 45.7125 122.594 44.3679 122.594 42.6971Z" fill="white"/>
<path d="M147.036 44.5206C147.036 46.3859 146.374 47.9035 145.045 49.0751C143.584 50.3554 141.551 50.9948 138.938 50.9948C136.526 50.9948 134.592 50.54 133.128 49.6287L133.961 46.7006C135.537 47.6332 137.267 48.1012 139.152 48.1012C140.505 48.1012 141.558 47.8013 142.314 47.2048C143.067 46.6083 143.443 45.8075 143.443 44.8089C143.443 43.9191 143.133 43.1694 142.511 42.5613C141.893 41.9533 140.86 41.3881 139.418 40.8657C135.494 39.4338 133.533 37.3362 133.533 34.5777C133.533 32.7751 134.22 31.297 135.596 30.1468C136.967 28.995 138.797 28.4199 141.084 28.4199C143.124 28.4199 144.819 28.7676 146.172 29.4613L145.274 32.3252C144.01 31.6529 142.582 31.3168 140.983 31.3168C139.72 31.3168 138.733 31.6216 138.025 32.228C137.427 32.7701 137.128 33.4309 137.128 34.2136C137.128 35.0803 137.469 35.7971 138.157 36.3607C138.755 36.8814 139.841 37.4449 141.418 38.0529C143.347 38.8126 144.763 39.7007 145.675 40.7191C146.583 41.7341 147.036 43.0046 147.036 44.5206Z" fill="white"/>
<path d="M158.914 37.4953H154.955V45.1724C154.955 47.125 155.653 48.1005 157.051 48.1005C157.693 48.1005 158.225 48.0462 158.646 47.9374L158.746 50.6052C158.038 50.8639 157.107 50.9941 155.953 50.9941C154.534 50.9941 153.426 50.5706 152.626 49.7253C151.829 48.8783 151.428 47.4579 151.428 45.4624V37.492H149.07V34.8555H151.428V31.9604L154.955 30.9189V34.8555H158.914V37.4953Z" fill="white"/>
<path d="M176.771 42.6331C176.771 45.0636 176.061 47.0591 174.642 48.6196C173.155 50.2262 171.181 51.027 168.719 51.027C166.348 51.027 164.459 50.2575 163.051 48.7184C161.643 47.1794 160.939 45.2366 160.939 42.8951C160.939 40.4448 161.663 38.4378 163.117 36.8773C164.567 35.3152 166.525 34.5342 168.986 34.5342C171.357 34.5342 173.266 35.3037 174.706 36.8444C176.084 38.3389 176.771 40.2685 176.771 42.6331ZM173.045 42.7468C173.045 41.2885 172.727 40.0378 172.082 38.9948C171.329 37.7326 170.252 37.1031 168.858 37.1031C167.414 37.1031 166.317 37.7342 165.564 38.9948C164.919 40.0395 164.601 41.3099 164.601 42.8127C164.601 44.271 164.919 45.5217 165.564 46.5631C166.341 47.8253 167.426 48.4548 168.826 48.4548C170.197 48.4548 171.273 47.8121 172.05 46.5301C172.712 45.4673 173.045 44.2035 173.045 42.7468Z" fill="white"/>
<path d="M188.447 37.9465C188.092 37.8822 187.713 37.8492 187.315 37.8492C186.052 37.8492 185.075 38.3156 184.387 39.2499C183.789 40.0738 183.49 41.1152 183.49 42.3724V50.6691H179.9L179.934 39.8365C179.934 38.014 179.888 36.3547 179.799 34.8585H182.927L183.058 37.8838H183.158C183.537 36.8441 184.135 36.007 184.953 35.3792C185.754 34.814 186.618 34.5322 187.549 34.5322C187.881 34.5322 188.181 34.5553 188.447 34.5965V37.9465Z" fill="white"/>
<path d="M204.512 42.0138C204.512 42.6432 204.47 43.1738 204.381 43.6072H193.606C193.649 45.1693 194.169 46.364 195.17 47.1879C196.078 47.9244 197.252 48.2935 198.694 48.2935C200.289 48.2935 201.744 48.0447 203.053 47.5454L203.616 49.9842C202.086 50.6367 200.28 50.9613 198.197 50.9613C195.69 50.9613 193.723 50.2396 192.291 48.7978C190.862 47.3559 190.146 45.4198 190.146 42.9909C190.146 40.6066 190.812 38.621 192.144 37.0374C193.539 35.3468 195.424 34.5015 197.796 34.5015C200.125 34.5015 201.889 35.3468 203.087 37.0374C204.035 38.3804 204.512 40.0414 204.512 42.0138ZM201.087 41.1025C201.111 40.0611 200.877 39.1614 200.39 38.4018C199.768 37.4247 198.813 36.9369 197.528 36.9369C196.354 36.9369 195.399 37.4131 194.669 38.3688C194.071 39.1285 193.716 40.0397 193.606 41.1009H201.087V41.1025Z" fill="white"/>
<path d="M81.3659 15.2481C81.3659 17.1876 80.7713 18.6475 79.5837 19.628C78.4837 20.5326 76.9205 20.9858 74.8957 20.9858C73.8917 20.9858 73.0326 20.9429 72.3134 20.8572V10.2602C73.2516 10.1119 74.2623 10.0361 75.3539 10.0361C77.2827 10.0361 78.7364 10.4464 79.7168 11.267C80.8151 12.1947 81.3659 13.5212 81.3659 15.2481ZM79.5045 15.2959C79.5045 14.0386 79.1643 13.0747 78.4837 12.4024C77.8032 11.7317 76.8093 11.3956 75.5004 11.3956C74.9446 11.3956 74.4712 11.4318 74.0787 11.5076V19.5637C74.296 19.5967 74.6936 19.6115 75.2714 19.6115C76.6223 19.6115 77.665 19.244 78.3995 18.5091C79.1339 17.7742 79.5045 16.7031 79.5045 15.2959Z" fill="white"/>
<path d="M91.2358 16.9426C91.2358 18.1373 90.8871 19.1161 90.1897 19.8839C89.4586 20.6732 88.49 21.0671 87.2805 21.0671C86.1148 21.0671 85.1867 20.6897 84.4944 19.9317C83.8037 19.1754 83.4584 18.2213 83.4584 17.0712C83.4584 15.8683 83.8138 14.8812 84.528 14.115C85.2423 13.3488 86.2024 12.9648 87.4119 12.9648C88.5776 12.9648 89.5142 13.3422 90.2234 14.0985C90.8972 14.8334 91.2358 15.7826 91.2358 16.9426ZM89.4047 16.9987C89.4047 16.2819 89.2463 15.6672 88.9313 15.1548C88.5608 14.5352 88.0335 14.2254 87.3479 14.2254C86.6387 14.2254 86.0997 14.5352 85.7291 15.1548C85.4124 15.6672 85.2557 16.2917 85.2557 17.03C85.2557 17.7468 85.4141 18.3614 85.7291 18.8738C86.1115 19.4934 86.6438 19.8032 87.3311 19.8032C88.0049 19.8032 88.5338 19.4885 88.9145 18.8574C89.2413 18.335 89.4047 17.7154 89.4047 16.9987Z" fill="white"/>
<path d="M104.467 13.1216L101.983 20.8893H100.365L99.3361 17.5163C99.0751 16.6742 98.8628 15.8372 98.6977 15.0067H98.6657C98.5124 15.8602 98.3002 16.6957 98.0273 17.5163L96.934 20.8893H95.2984L92.962 13.1216H94.7762L95.674 16.8143C95.8913 17.6876 96.0699 18.5198 96.2131 19.3074H96.2451C96.3765 18.6582 96.5938 17.831 96.9003 16.8308L98.0273 13.1232H99.4659L100.546 16.7517C100.807 17.6365 101.019 18.4885 101.182 19.3091H101.231C101.351 18.5099 101.531 17.658 101.77 16.7517L102.734 13.1232H104.467V13.1216Z" fill="white"/>
<path d="M113.622 20.8918H111.857V16.4427C111.857 15.0718 111.325 14.3863 110.257 14.3863C109.733 14.3863 109.31 14.5741 108.981 14.9515C108.656 15.3288 108.491 15.7737 108.491 16.2829V20.8901H106.726V15.3437C106.726 14.6615 106.704 13.9216 106.662 13.1208H108.213L108.296 14.3352H108.345C108.55 13.9579 108.857 13.6464 109.259 13.3976C109.738 13.1076 110.273 12.9609 110.86 12.9609C111.601 12.9609 112.217 13.1949 112.708 13.6645C113.317 14.2396 113.622 15.0981 113.622 16.2384V20.8918Z" fill="white"/>
<path d="M118.491 20.89H116.727V9.55811H118.491V20.89Z" fill="white"/>
<path d="M128.883 16.9426C128.883 18.1373 128.534 19.1161 127.836 19.8839C127.105 20.6732 126.135 21.0671 124.927 21.0671C123.76 21.0671 122.832 20.6897 122.141 19.9317C121.45 19.1754 121.105 18.2213 121.105 17.0712C121.105 15.8683 121.461 14.8812 122.175 14.115C122.889 13.3488 123.849 12.9648 125.057 12.9648C126.224 12.9648 127.159 13.3422 127.87 14.0985C128.544 14.8334 128.883 15.7826 128.883 16.9426ZM127.05 16.9987C127.05 16.2819 126.891 15.6672 126.576 15.1548C126.208 14.5352 125.679 14.2254 124.995 14.2254C124.284 14.2254 123.745 14.5352 123.376 15.1548C123.059 15.6672 122.903 16.2917 122.903 17.03C122.903 17.7468 123.061 18.3614 123.376 18.8738C123.758 19.4934 124.291 19.8032 124.978 19.8032C125.652 19.8032 126.179 19.4885 126.56 18.8574C126.888 18.335 127.05 17.7154 127.05 16.9987Z" fill="white"/>
<path d="M137.426 20.8907H135.841L135.709 19.996H135.661C135.118 20.7095 134.345 21.0671 133.341 21.0671C132.591 21.0671 131.985 20.8314 131.528 20.3635C131.114 19.9383 130.907 19.4094 130.907 18.7816C130.907 17.8324 131.311 17.1091 132.125 16.6081C132.937 16.1072 134.079 15.8617 135.549 15.8732V15.7282C135.549 14.7049 135 14.1941 133.9 14.1941C133.117 14.1941 132.426 14.3869 131.83 14.7692L131.471 13.6355C132.209 13.1889 133.12 12.9648 134.195 12.9648C136.27 12.9648 137.311 14.0359 137.311 16.178V19.0386C137.311 19.8147 137.35 20.4327 137.426 20.8907ZM135.593 18.2213V17.0234C133.646 16.9904 132.672 17.5128 132.672 18.5888C132.672 18.9941 132.783 19.2973 133.011 19.5C133.238 19.7027 133.528 19.8032 133.873 19.8032C134.261 19.8032 134.623 19.6829 134.953 19.444C135.285 19.2034 135.489 18.8986 135.565 18.5245C135.583 18.4405 135.593 18.3383 135.593 18.2213Z" fill="white"/>
<path d="M147.457 20.89H145.89L145.807 19.6426H145.759C145.258 20.5918 144.406 21.0663 143.208 21.0663C142.251 21.0663 141.455 20.6989 140.823 19.9639C140.191 19.229 139.876 18.275 139.876 17.1034C139.876 15.8461 140.218 14.8278 140.906 14.05C141.571 13.325 142.386 12.9625 143.356 12.9625C144.423 12.9625 145.169 13.3134 145.593 14.017H145.627V9.55811H147.394V18.7973C147.394 19.5536 147.414 20.2507 147.457 20.89ZM145.627 17.6142V16.319C145.627 16.0949 145.61 15.9137 145.578 15.7752C145.479 15.36 145.265 15.0107 144.94 14.7289C144.611 14.4471 144.216 14.3054 143.759 14.3054C143.1 14.3054 142.585 14.5608 142.206 15.0733C141.83 15.5857 141.64 16.2399 141.64 17.0391C141.64 17.807 141.82 18.4298 142.182 18.9094C142.565 19.4202 143.08 19.6756 143.725 19.6756C144.305 19.6756 144.768 19.463 145.12 19.0362C145.46 18.6424 145.627 18.1678 145.627 17.6142Z" fill="white"/>
<path d="M162.554 16.9426C162.554 18.1373 162.205 19.1161 161.508 19.8839C160.776 20.6732 159.81 21.0671 158.598 21.0671C157.434 21.0671 156.506 20.6897 155.812 19.9317C155.122 19.1754 154.776 18.2213 154.776 17.0712C154.776 15.8683 155.132 14.8812 155.846 14.115C156.56 13.3488 157.52 12.9648 158.731 12.9648C159.895 12.9648 160.834 13.3422 161.541 14.0985C162.215 14.8334 162.554 15.7826 162.554 16.9426ZM160.724 16.9987C160.724 16.2819 160.566 15.6672 160.251 15.1548C159.879 14.5352 159.353 14.2254 158.666 14.2254C157.958 14.2254 157.419 14.5352 157.047 15.1548C156.73 15.6672 156.574 16.2917 156.574 17.03C156.574 17.7468 156.732 18.3614 157.047 18.8738C157.429 19.4934 157.962 19.8032 158.649 19.8032C159.323 19.8032 159.853 19.4885 160.234 18.8574C160.559 18.335 160.724 17.7154 160.724 16.9987Z" fill="white"/>
<path d="M172.048 20.8918H170.284V16.4427C170.284 15.0718 169.752 14.3863 168.682 14.3863C168.158 14.3863 167.735 14.5741 167.409 14.9515C167.082 15.3288 166.918 15.7737 166.918 16.2829V20.8901H165.151V15.3437C165.151 14.6615 165.131 13.9216 165.089 13.1208H166.639L166.721 14.3352H166.77C166.977 13.9579 167.284 13.6464 167.685 13.3976C168.165 13.1076 168.699 12.9609 169.287 12.9609C170.026 12.9609 170.643 13.1949 171.133 13.6645C171.744 14.2396 172.048 15.0981 172.048 16.2384V20.8918Z" fill="white"/>
<path d="M183.927 14.418H181.983V18.1914C181.983 19.1505 182.328 19.63 183.012 19.63C183.329 19.63 183.592 19.6036 183.799 19.5492L183.845 20.8592C183.496 20.9877 183.038 21.052 182.473 21.052C181.776 21.052 181.234 20.8444 180.841 20.4291C180.447 20.0139 180.251 19.3152 180.251 18.3348V14.418H179.091V13.1245H180.251V11.7008L181.981 11.1899V13.1228H183.925V14.418H183.927Z" fill="white"/>
<path d="M193.277 20.89H191.51V16.4739C191.51 15.0815 190.977 14.3845 189.911 14.3845C189.092 14.3845 188.533 14.7882 188.226 15.5956C188.174 15.7654 188.144 15.973 188.144 16.2169V20.8884H186.38V9.55811H188.144V14.2395H188.178C188.734 13.3876 189.53 12.9625 190.563 12.9625C191.294 12.9625 191.899 13.1964 192.379 13.6661C192.977 14.251 193.277 15.1211 193.277 16.2712V20.89Z" fill="white"/>
<path d="M202.917 16.6406C202.917 16.9504 202.893 17.2107 202.851 17.4233H197.556C197.58 18.1912 197.833 18.7761 198.323 19.1815C198.771 19.544 199.349 19.7253 200.056 19.7253C200.84 19.7253 201.554 19.6033 202.197 19.3578L202.473 20.5574C201.721 20.8771 200.834 21.0369 199.809 21.0369C198.579 21.0369 197.61 20.6826 196.91 19.9741C196.205 19.2655 195.857 18.3148 195.857 17.1217C195.857 15.9502 196.182 14.9747 196.837 14.1969C197.521 13.3664 198.446 12.9512 199.613 12.9512C200.755 12.9512 201.623 13.3664 202.209 14.1969C202.682 14.856 202.917 15.6717 202.917 16.6406ZM201.232 16.194C201.245 15.6816 201.129 15.24 200.89 14.8676C200.583 14.3881 200.117 14.1475 199.485 14.1475C198.909 14.1475 198.439 14.3815 198.08 14.8511C197.787 15.2251 197.614 15.6717 197.556 16.194H201.232Z" fill="white"/>
</svg>
