<svg width="220" height="64" viewBox="0 0 220 64" fill="none" xmlns="http://www.w3.org/2000/svg">
<path d="M210.908 63.4253H8.56927C4.11984 63.4253 0.475708 59.8557 0.475708 55.4972V7.92872C0.475708 3.57025 4.11984 0.000629079 8.56927 0.000629079H210.908C215.358 0.000629079 219.002 3.57025 219.002 7.92872V55.4972C219.002 59.8557 215.358 63.4253 210.908 63.4253Z" fill="black"/>
<path d="M77.229 16.2436C77.229 17.5676 76.8243 18.628 76.0271 19.4188C75.1105 20.3563 73.9167 20.828 72.4538 20.828C71.0556 20.828 69.8618 20.3484 68.8825 19.403C67.9012 18.4437 67.4115 17.2664 67.4115 15.8571C67.4115 14.4479 67.9012 13.2706 68.8825 12.3192C69.8618 11.3659 71.0556 10.8862 72.4538 10.8862C73.1498 10.8862 73.8135 11.027 74.4468 11.2886C75.0781 11.5522 75.5921 11.909 75.9644 12.349L75.1186 13.1854C74.4691 12.4342 73.5849 12.0636 72.4538 12.0636C71.434 12.0636 70.5498 12.4124 69.7991 13.116C69.0565 13.8216 68.6842 14.7353 68.6842 15.8571C68.6842 16.979 69.0565 17.9006 69.7991 18.6062C70.5498 19.3019 71.434 19.6587 72.4538 19.6587C73.5363 19.6587 74.4468 19.3019 75.1651 18.5983C75.6386 18.1325 75.9077 17.4903 75.9785 16.6698H72.4538V15.5242H77.1562C77.2128 15.7719 77.229 16.0117 77.229 16.2436Z" fill="white" stroke="white" stroke-width="0.16" stroke-miterlimit="10"/>
<path d="M84.6885 12.2724H80.2715V15.2851H84.2535V16.4307H80.2715V19.4433H84.6885V20.6108H79.021V11.105H84.6885V12.2724Z" fill="white" stroke="white" stroke-width="0.16" stroke-miterlimit="10"/>
<path d="M89.9527 20.6088H88.7022V12.2704H85.9929V11.103H92.664V12.2704H89.9527V20.6088Z" fill="white" stroke="white" stroke-width="0.16" stroke-miterlimit="10"/>
<path d="M97.494 20.6108V11.105H98.7425V20.6108H97.494Z" fill="white" stroke="white" stroke-width="0.16" stroke-miterlimit="10"/>
<path d="M104.274 20.6117H103.034V12.2734H100.314V11.106H106.994V12.2734H104.274V20.6117Z" fill="white" stroke="white" stroke-width="0.16" stroke-miterlimit="10"/>
<path d="M119.625 19.3881C118.668 20.3494 117.482 20.829 116.068 20.829C114.646 20.829 113.46 20.3494 112.503 19.3881C111.548 18.4288 111.072 17.2515 111.072 15.8581C111.072 14.4648 111.548 13.2874 112.503 12.3281C113.46 11.3669 114.646 10.8872 116.068 10.8872C117.474 10.8872 118.66 11.3669 119.617 12.3361C120.58 13.3033 121.056 14.4727 121.056 15.8581C121.056 17.2515 120.58 18.4288 119.625 19.3881ZM113.427 18.5913C114.148 19.3029 115.024 19.6596 116.068 19.6596C117.104 19.6596 117.988 19.3029 118.7 18.5913C119.419 17.8798 119.783 16.9661 119.783 15.8581C119.783 14.7502 119.419 13.8365 118.7 13.1249C117.988 12.4134 117.104 12.0566 116.068 12.0566C115.024 12.0566 114.148 12.4134 113.427 13.1249C112.709 13.8365 112.345 14.7502 112.345 15.8581C112.345 16.9661 112.709 17.8798 113.427 18.5913Z" fill="white" stroke="white" stroke-width="0.16" stroke-miterlimit="10"/>
<path d="M122.811 20.6108V11.105H124.329L129.047 18.4979H129.102L129.047 16.6705V11.105H130.296V20.6108H128.993L124.052 12.8531H123.997L124.052 14.6885V20.6108H122.811Z" fill="white" stroke="white" stroke-width="0.16" stroke-miterlimit="10"/>
<path d="M110.763 34.4915C106.961 34.4915 103.856 37.3258 103.856 41.2363C103.856 45.1151 106.961 47.9791 110.763 47.9791C114.573 47.9791 117.679 45.1151 117.679 41.2363C117.679 37.3258 114.573 34.4915 110.763 34.4915ZM110.763 45.3232C108.677 45.3232 106.883 43.6365 106.883 41.2363C106.883 38.8043 108.677 37.1474 110.763 37.1474C112.85 37.1474 114.652 38.8043 114.652 41.2363C114.652 43.6365 112.85 45.3232 110.763 45.3232ZM95.6912 34.4915C91.8812 34.4915 88.7833 37.3258 88.7833 41.2363C88.7833 45.1151 91.8812 47.9791 95.6912 47.9791C99.4992 47.9791 102.599 45.1151 102.599 41.2363C102.599 37.3258 99.4992 34.4915 95.6912 34.4915ZM95.6912 45.3232C93.6031 45.3232 91.8022 43.6365 91.8022 41.2363C91.8022 38.8043 93.6031 37.1474 95.6912 37.1474C97.7773 37.1474 99.5721 38.8043 99.5721 41.2363C99.5721 43.6365 97.7773 45.3232 95.6912 45.3232ZM77.7559 36.5587V39.4247H84.7426C84.5383 41.0262 83.992 42.2035 83.1543 43.0241C82.1345 44.0151 80.5461 45.1151 77.7559 45.1151C73.4562 45.1151 70.0892 41.7159 70.0892 37.5041C70.0892 33.2923 73.4562 29.8932 77.7559 29.8932C80.0807 29.8932 81.7723 30.7831 83.0207 31.9366L85.0826 29.917C83.3364 28.2838 81.0135 27.0292 77.7559 27.0292C71.8597 27.0292 66.9044 31.7285 66.9044 37.5041C66.9044 43.2797 71.8597 47.9791 77.7559 47.9791C80.9427 47.9791 83.3364 46.9564 85.2181 45.0378C87.1464 43.1489 87.7474 40.493 87.7474 38.3485C87.7474 37.6825 87.6907 37.0701 87.5895 36.5587H77.7559ZM151.096 38.7806C150.527 37.2722 148.773 34.4915 145.2 34.4915C141.659 34.4915 138.711 37.2247 138.711 41.2363C138.711 45.014 141.628 47.9791 145.539 47.9791C148.702 47.9791 150.527 46.0902 151.278 44.9902L148.931 43.4581C148.148 44.5799 147.081 45.3232 145.539 45.3232C144.008 45.3232 142.909 44.6354 142.205 43.2797L151.413 39.5476L151.096 38.7806ZM141.707 41.0262C141.628 38.4258 143.769 37.0939 145.303 37.0939C146.505 37.0939 147.524 37.6825 147.864 38.5249L141.707 41.0262ZM134.223 47.5688H137.25V27.7486H134.223V47.5688ZM129.265 35.9938H129.164C128.484 35.205 127.187 34.4915 125.544 34.4915C122.096 34.4915 118.944 37.4566 118.944 41.2581C118.944 45.0378 122.096 47.9791 125.544 47.9791C127.187 47.9791 128.484 47.2596 129.164 46.447H129.265V47.4142C129.265 49.9928 127.859 51.3783 125.591 51.3783C123.741 51.3783 122.594 50.0701 122.121 48.9701L119.488 50.0464C120.247 51.8341 122.256 54.0342 125.591 54.0342C129.14 54.0342 132.134 51.9887 132.134 47.0119V34.9017H129.265V35.9938ZM125.803 45.3232C123.717 45.3232 121.971 43.6127 121.971 41.2581C121.971 38.8816 123.717 37.1474 125.803 37.1474C127.859 37.1474 129.48 38.8816 129.48 41.2581C129.48 43.6127 127.859 45.3232 125.803 45.3232ZM165.268 27.7486H158.028V47.5688H161.047V40.059H165.268C168.62 40.059 171.908 37.6825 171.908 33.9028C171.908 30.1251 168.612 27.7486 165.268 27.7486ZM165.346 37.302H161.047V30.5056H165.346C167.6 30.5056 168.887 32.339 168.887 33.9028C168.887 35.4369 167.6 37.302 165.346 37.302ZM184.008 34.4538C181.827 34.4538 179.559 35.3972 178.626 37.4883L181.305 38.5883C181.882 37.4883 182.942 37.1315 184.063 37.1315C185.629 37.1315 187.217 38.0532 187.242 39.6804V39.8885C186.695 39.5793 185.526 39.1215 184.087 39.1215C181.202 39.1215 178.262 40.6773 178.262 43.581C178.262 46.2369 180.625 47.9474 183.282 47.9474C185.313 47.9474 186.434 47.0495 187.138 46.005H187.242V47.5371H190.157V39.9341C190.157 36.42 187.478 34.4538 184.008 34.4538ZM183.644 45.3153C182.657 45.3153 181.281 44.8356 181.281 43.6365C181.281 42.1024 182.996 41.5138 184.482 41.5138C185.811 41.5138 186.434 41.8012 187.242 42.1797C187.005 44.0151 185.392 45.3153 183.644 45.3153ZM200.78 34.8879L197.31 43.4799H197.207L193.619 34.8879H190.364L195.754 46.8949L192.678 53.5763H195.833L204.139 34.8879H200.78ZM173.567 47.5688H176.594V27.7486H173.567V47.5688Z" fill="white"/>
<path d="M17.369 11.953C16.8935 12.4405 16.6183 13.1996 16.6183 14.1827V49.2486C16.6183 50.2317 16.8935 50.9908 17.369 51.4784L17.4863 51.5854L37.5462 31.9436V31.4798L17.4863 11.838L17.369 11.953Z" fill="url(#paint0_linear)"/>
<path d="M44.2249 38.4956L37.5457 31.945V31.4812L44.233 24.9307L44.3827 25.0159L52.3022 29.4298C54.5624 30.6825 54.5624 32.7438 52.3022 34.0043L44.3827 38.4104L44.2249 38.4956Z" fill="url(#paint1_linear)"/>
<path d="M44.3759 38.4086L37.5388 31.7113L17.3616 51.478C18.1123 52.251 19.3364 52.3442 20.7285 51.5712L44.3759 38.4086Z" fill="url(#paint2_linear)"/>
<path d="M44.3759 25.0161L20.7285 11.8535C19.3364 11.0885 18.1123 11.1816 17.3616 11.9546L37.5388 31.7134L44.3759 25.0161Z" fill="url(#paint3_linear)"/>
<defs>
<linearGradient id="paint0_linear" x1="35.7651" y1="49.6138" x2="9.16037" y2="22.4537" gradientUnits="userSpaceOnUse">
<stop stop-color="#00A0FF"/>
<stop offset="0.0066" stop-color="#00A1FF"/>
<stop offset="0.2601" stop-color="#00BEFF"/>
<stop offset="0.5122" stop-color="#00D2FF"/>
<stop offset="0.7604" stop-color="#00DFFF"/>
<stop offset="1" stop-color="#00E3FF"/>
</linearGradient>
<linearGradient id="paint1_linear" x1="55.2453" y1="31.7109" x2="16.0775" y2="31.7109" gradientUnits="userSpaceOnUse">
<stop stop-color="#FFE000"/>
<stop offset="0.4087" stop-color="#FFBD00"/>
<stop offset="0.7754" stop-color="#FFA500"/>
<stop offset="1" stop-color="#FF9C00"/>
</linearGradient>
<linearGradient id="paint2_linear" x1="40.6581" y1="28.0706" x2="4.57985" y2="-8.7607" gradientUnits="userSpaceOnUse">
<stop stop-color="#FF3A44"/>
<stop offset="1" stop-color="#C31162"/>
</linearGradient>
<linearGradient id="paint3_linear" x1="12.2825" y1="63.1463" x2="28.3931" y2="46.6997" gradientUnits="userSpaceOnUse">
<stop stop-color="#32A071"/>
<stop offset="0.0685" stop-color="#2DA771"/>
<stop offset="0.4762" stop-color="#15CF74"/>
<stop offset="0.8009" stop-color="#06E775"/>
<stop offset="1" stop-color="#00F076"/>
</linearGradient>
</defs>
</svg>
