<svg width="23" height="23" viewBox="0 0 23 23" fill="none" xmlns="http://www.w3.org/2000/svg">
<circle cx="11.4999" cy="11.5401" r="5.06002" transform="rotate(0.20865 11.4999 11.5401)" stroke="#323FFF" stroke-width="0.920005"/>
<path d="M11.5854 9.22202C11.3401 9.22113 11.1624 9.16528 11.0524 9.05448C10.9486 8.9437 10.897 8.80244 10.8976 8.63071L10.8982 8.44671C10.8989 8.27498 10.9515 8.1341 11.0562 8.02408C11.167 7.91408 11.3451 7.85953 11.5904 7.86042C11.8296 7.86129 12.0042 7.91713 12.1142 8.02793C12.2242 8.13873 12.2789 8.28 12.2782 8.45173L12.2776 8.63573C12.2769 8.80747 12.2212 8.94833 12.1104 9.05833C11.9996 9.16833 11.8246 9.22289 11.5854 9.22202ZM10.9941 9.91908L12.1717 9.92336L12.1542 14.7258L10.9766 14.7215L10.9941 9.91908Z" fill="#323FFF"/>
</svg>
