<svg width="147" height="147" viewBox="0 0 147 147" fill="none" xmlns="http://www.w3.org/2000/svg">
<path d="M115.885 36.8113C114.66 33.1975 111.23 30.625 107.188 30.625H39.8125C35.77 30.625 32.4012 33.1975 31.115 36.8113L18.375 73.5V122.5C18.375 125.869 21.1312 128.625 24.5 128.625H30.625C33.9937 128.625 36.75 125.869 36.75 122.5V116.375H110.25V122.5C110.25 125.869 113.006 128.625 116.375 128.625H122.5C125.869 128.625 128.625 125.869 128.625 122.5V73.5L115.885 36.8113ZM39.8125 98C34.7288 98 30.625 93.8963 30.625 88.8125C30.625 83.7287 34.7288 79.625 39.8125 79.625C44.8962 79.625 49 83.7287 49 88.8125C49 93.8963 44.8962 98 39.8125 98ZM107.188 98C102.104 98 98 93.8963 98 88.8125C98 83.7287 102.104 79.625 107.188 79.625C112.271 79.625 116.375 83.7287 116.375 88.8125C116.375 93.8963 112.271 98 107.188 98ZM30.625 67.375L39.8125 39.8125H107.188L116.375 67.375H30.625Z" fill="#323FFF"/>
</svg>
