<svg width="23" height="16" viewBox="0 0 23 16" fill="none" xmlns="http://www.w3.org/2000/svg">
<path d="M21.9188 7.79808L15.5023 1.08988C15.3907 0.974241 15.2061 0.9691 15.0899 1.08077C14.9737 1.19214 14.9697 1.37671 15.0808 1.49319L21.3042 7.99974L15.0808 14.5063C14.9697 14.6228 14.9737 14.8074 15.0899 14.9187C15.1463 14.9728 15.2192 14.9996 15.2915 14.9996C15.3684 14.9996 15.4448 14.9694 15.5023 14.9096L21.9188 8.2014C22.0265 8.0886 22.0265 7.91087 21.9188 7.79808Z" fill="white" stroke="white"/>
<path d="M14.6688 7.79808L8.25231 1.08988C8.14067 0.974241 7.9561 0.9691 7.83989 1.08077C7.72368 1.19214 7.71969 1.37671 7.83078 1.49319L14.0542 7.99974L7.83076 14.5063C7.71966 14.6228 7.72365 14.8074 7.83986 14.9187C7.89627 14.9728 7.96917 14.9996 8.04152 14.9996C8.11844 14.9996 8.19475 14.9694 8.25228 14.9096L14.6688 8.2014C14.7765 8.0886 14.7765 7.91087 14.6688 7.79808Z" fill="white" stroke="white"/>
<path opacity="0.4" d="M7.91884 7.79808L1.50231 1.08988C1.39067 0.974241 1.2061 0.9691 1.08989 1.08077C0.973681 1.19214 0.969689 1.37671 1.08078 1.49319L7.3042 7.99974L1.08076 14.5063C0.969662 14.6228 0.973654 14.8074 1.08986 14.9187C1.14627 14.9728 1.21917 14.9996 1.29152 14.9996C1.36844 14.9996 1.44475 14.9694 1.50228 14.9096L7.91884 8.2014C8.02652 8.0886 8.02652 7.91087 7.91884 7.79808Z" fill="white" stroke="white"/>
</svg>
