<svg width="104" height="111" viewBox="0 0 104 111" fill="none" xmlns="http://www.w3.org/2000/svg">
<circle cx="60.5" cy="41.5" r="41.5" fill="#F8F8F8"/>
<path fill-rule="evenodd" clip-rule="evenodd" d="M46.7497 14.6666C25.1645 14.6666 7.66634 32.1648 7.66634 53.7499C7.66634 75.3351 25.1645 92.8333 46.7497 92.8333C68.3348 92.8333 85.833 75.3351 85.833 53.7499C85.833 32.1648 68.3348 14.6666 46.7497 14.6666ZM1.83301 53.7499C1.83301 28.9431 21.9429 8.83325 46.7497 8.83325C71.5565 8.83325 91.6663 28.9431 91.6663 53.7499C91.6663 78.5567 71.5565 98.6666 46.7497 98.6666C21.9429 98.6666 1.83301 78.5567 1.83301 53.7499Z" fill="#323FFF"/>
<path fill-rule="evenodd" clip-rule="evenodd" d="M74.3523 81.3496C75.4913 80.2106 77.3381 80.2106 78.4771 81.3496L101.315 104.187C102.454 105.326 102.454 107.173 101.315 108.312C100.176 109.451 98.3289 109.451 97.1898 108.312L74.3523 85.4744C73.2133 84.3354 73.2133 82.4887 74.3523 81.3496Z" fill="#323FFF"/>
<path d="M69.3102 50.7871C71.1209 49.5015 72.3199 47.3631 72.3199 44.9527C72.3199 41.0095 69.1633 37.8203 65.2605 37.8203C61.3577 37.8203 58.2012 41.0095 58.2012 44.9527C58.2012 47.3631 59.3879 49.5015 61.2109 50.7871C59.6571 51.331 58.2379 52.1715 57.0389 53.2593C55.3873 51.8378 53.442 50.75 51.3132 50.1072C53.8946 48.525 55.6319 45.6449 55.6319 42.3692C55.6319 37.3753 51.6313 33.3333 46.6885 33.3333C41.7458 33.3333 37.7451 37.3877 37.7451 42.3692C37.7451 45.6449 39.4701 48.525 42.0638 50.1072C39.9595 50.75 38.0387 51.8254 36.3993 53.2222C35.2003 52.1592 33.8055 51.331 32.2762 50.7994C34.0869 49.5139 35.2859 47.3754 35.2859 44.965C35.2859 41.0218 32.1294 37.8327 28.2266 37.8327C24.3238 37.8327 21.1673 41.0218 21.1673 44.965C21.1673 47.3754 22.354 49.5139 24.177 50.7994C19.3199 52.4929 15.833 57.153 15.833 62.629V63.4448C15.833 63.4448 15.8575 63.4943 15.8819 63.4943H30.8448C30.7591 64.1741 30.7102 64.8787 30.7102 65.5833V66.4238C30.7102 70.058 33.622 72.9999 37.219 72.9999H56.1825C59.7794 72.9999 62.6913 70.058 62.6913 66.4238V65.5833C62.6913 64.8787 62.6423 64.1741 62.5567 63.4943H77.6174C77.6419 63.4943 77.6663 63.4695 77.6663 63.4448V62.629C77.6419 57.1407 74.1673 52.4805 69.3102 50.7871ZM60.1587 44.9403C60.1587 42.0972 62.4466 39.7857 65.2605 39.7857C68.0745 39.7857 70.3623 42.0972 70.3623 44.9403C70.3623 47.7463 68.1234 50.0331 65.3584 50.0949C65.3217 50.0949 65.2972 50.0949 65.2605 50.0949C65.2238 50.0949 65.1994 50.0949 65.1626 50.0949C62.3854 50.0454 60.1587 47.7586 60.1587 44.9403ZM39.6781 42.3692C39.6781 38.4755 42.8102 35.311 46.664 35.311C50.5179 35.311 53.65 38.4755 53.65 42.3692C53.65 46.127 50.7259 49.2049 47.0678 49.415C46.9332 49.415 46.7986 49.415 46.664 49.415C46.5295 49.415 46.3949 49.415 46.2603 49.415C42.6022 49.2049 39.6781 46.127 39.6781 42.3692ZM23.0881 44.9403C23.0881 42.0972 25.3759 39.7857 28.1899 39.7857C31.0038 39.7857 33.2917 42.0972 33.2917 44.9403C33.2917 47.7463 31.0528 50.0331 28.2878 50.0949C28.2511 50.0949 28.2266 50.0949 28.1899 50.0949C28.1532 50.0949 28.1287 50.0949 28.092 50.0949C25.327 50.0454 23.0881 47.7586 23.0881 44.9403ZM31.1873 61.5041H17.815C18.3656 56.2383 22.77 52.1097 28.1165 52.0726C28.1409 52.0726 28.1654 52.0726 28.1899 52.0726C28.2144 52.0726 28.2388 52.0726 28.2633 52.0726C30.8081 52.085 33.1326 53.0368 34.9311 54.5819C33.1693 56.5103 31.8602 58.8836 31.1873 61.5041ZM60.7093 66.4238C60.7093 68.9579 58.6661 71.0222 56.158 71.0222H37.1945C34.6864 71.0222 32.6433 68.9579 32.6433 66.4238V65.5833C32.6433 57.9071 38.7116 51.6276 46.2603 51.4051C46.3949 51.4175 46.5417 51.4175 46.6763 51.4175C46.8109 51.4175 46.9577 51.4175 47.0922 51.4051C54.6409 51.6276 60.7093 57.9071 60.7093 65.5833V66.4238ZM62.1652 61.5041C61.4923 58.8959 60.2077 56.5597 58.4581 54.6314C60.2688 53.0492 62.6179 52.0974 65.1871 52.0726C65.2116 52.0726 65.2361 52.0726 65.2605 52.0726C65.285 52.0726 65.3095 52.0726 65.3339 52.0726C70.6804 52.1097 75.0849 56.2383 75.6354 61.5041H62.1652Z" fill="#323FFF"/>
</svg>
