<svg width="113" height="115" viewBox="0 0 113 115" fill="none" xmlns="http://www.w3.org/2000/svg">
<path fill-rule="evenodd" clip-rule="evenodd" d="M71.6396 30.1958C57.1287 21.8179 38.5736 26.7897 30.1958 41.3006C21.8179 55.8116 26.7897 74.3666 41.3006 82.7445C55.8115 91.1224 74.3666 86.1506 82.7445 71.6397C91.1224 57.1287 86.1506 38.5737 71.6396 30.1958ZM20.6695 35.8006C32.0849 16.0285 57.3675 9.25405 77.1396 20.6695C96.9118 32.085 103.686 57.3675 92.2708 77.1397C80.8553 96.9118 55.5728 103.686 35.8006 92.2708C16.0285 80.8553 9.25403 55.5728 20.6695 35.8006Z" fill="url(#paint0_linear)"/>
<circle cx="63.5131" cy="66.5132" r="35" fill="white"/>
<circle cx="63.269" cy="67.5712" r="13" fill="#323FFF"/>
<path fill-rule="evenodd" clip-rule="evenodd" d="M63.3521 33.5132C44.6634 33.5132 29.5131 48.6634 29.5131 67.3522C29.5131 86.041 44.6634 101.191 63.3521 101.191C82.0409 101.191 97.1912 86.041 97.1912 67.3522C97.1912 48.6634 82.0409 33.5132 63.3521 33.5132ZM25.5131 67.3522C25.5131 46.4543 42.4542 29.5132 63.3521 29.5132C84.25 29.5132 101.191 46.4543 101.191 67.3522C101.191 88.2501 84.25 105.191 63.3521 105.191C42.4542 105.191 25.5131 88.2501 25.5131 67.3522Z" fill="#323FFF"/>
<path fill-rule="evenodd" clip-rule="evenodd" d="M87.2507 91.2488C88.0318 90.4677 89.2981 90.4677 90.0791 91.2488L109.567 110.736C110.348 111.517 110.348 112.784 109.567 113.565C108.786 114.346 107.519 114.346 106.738 113.565L87.2507 94.0772C86.4697 93.2961 86.4697 92.0298 87.2507 91.2488Z" fill="#323FFF"/>
<defs>
<linearGradient id="paint0_linear" x1="66.5277" y1="95.3718" x2="41.4108" y2="-16.1244" gradientUnits="userSpaceOnUse">
<stop stop-color="#F4F4F5"/>
<stop offset="1" stop-color="#F4F4F5" stop-opacity="0"/>
</linearGradient>
</defs>
</svg>
