<svg width="157" height="177" viewBox="0 0 157 177" fill="none" xmlns="http://www.w3.org/2000/svg">
<path d="M106.122 34.9694C100.417 29.0069 93.5832 24.2513 86.0219 20.9825C78.4607 17.7137 70.3251 15.9976 62.094 15.9354C53.8629 15.8731 45.7025 17.4658 38.0932 20.6199C30.4838 23.7739 23.5791 28.4255 17.7854 34.301C-5.57478 57.9656 -5.97073 96.4982 16.8787 120.664C26.9167 131.281 40.3697 137.986 54.8555 139.593C69.3414 141.199 83.9256 137.603 96.026 129.441L140.644 176.074C141.196 176.651 141.954 176.984 142.751 177C143.548 177.015 144.318 176.712 144.892 176.157L156.01 165.415C156.584 164.86 156.916 164.099 156.931 163.298C156.947 162.498 156.645 161.724 156.093 161.146L111.487 114.517C120.04 102.739 124.19 88.3095 123.209 73.7624C122.228 59.2153 116.178 45.4804 106.122 34.9694ZM92.2251 109.946C85.9307 116.026 77.9834 120.095 69.388 121.637C60.7927 123.179 51.9353 122.125 43.936 118.608C35.9366 115.092 29.1546 109.271 24.4475 101.882C19.7404 94.4921 17.3196 85.8659 17.4913 77.0939C17.6629 68.3219 20.4193 59.7981 25.4118 52.6002C30.4044 45.4024 37.4089 39.8538 45.5396 36.6561C53.6703 33.4584 62.562 32.7552 71.0904 34.6355C79.6188 36.5157 87.4009 40.895 93.4525 47.2195C97.4708 51.419 100.627 56.3728 102.74 61.798C104.853 67.2231 105.882 73.0134 105.768 78.8381C105.654 84.6628 104.399 90.408 102.075 95.7455C99.7517 101.083 96.4046 105.908 92.2251 109.946Z" fill="#F8F8F8"/>
<path d="M106.122 19.0358C100.417 13.0733 93.5832 8.31775 86.0219 5.04892C78.4607 1.78009 70.3251 0.0640391 62.094 0.00175841C53.8629 -0.0605223 45.7025 1.53221 38.0931 4.68626C30.4837 7.8403 23.5791 12.4919 17.7854 18.3674C-5.57479 42.032 -5.97071 80.5646 16.8787 104.731C26.9173 115.347 40.3704 122.051 54.8563 123.657C69.3421 125.263 83.9261 121.666 96.026 113.503L140.64 160.14C141.192 160.717 141.95 161.05 142.747 161.066C143.544 161.082 144.314 160.779 144.888 160.224L156.006 149.482C156.58 148.927 156.912 148.165 156.927 147.364C156.943 146.564 156.642 145.79 156.089 145.213L111.471 98.5796C120.025 86.8035 124.178 72.3759 123.199 57.8298C122.221 43.2836 116.175 29.5485 106.122 19.0358ZM92.2251 93.9804C85.9307 100.061 77.9834 104.129 69.388 105.671C60.7927 107.213 51.9353 106.159 43.936 102.643C35.9367 99.1266 29.1546 93.3056 24.4475 85.9161C19.7404 78.5266 17.3196 69.9005 17.4913 61.1285C17.6629 52.3565 20.4193 43.8326 25.4118 36.6348C30.4044 29.4369 37.4089 23.8883 45.5396 20.6906C53.6703 17.493 62.562 16.7898 71.0904 18.67C79.6188 20.5503 87.4009 24.9296 93.4525 31.254C97.4708 35.4536 100.627 40.4074 102.74 45.8325C104.853 51.2577 105.882 57.0479 105.768 62.8727C105.654 68.6974 104.399 74.4425 102.075 79.78C99.7517 85.1175 96.4046 89.9428 92.2251 93.9804Z" fill="#323FFF"/>
<path d="M61.8474 28.1997C48.4846 27.8973 36.3254 34.6331 29.8598 44.8024C27.7495 48.1205 33.74 51.0527 35.8384 47.7505C41.1915 39.3318 51.363 33.9846 62.3661 34.2631C73.8957 34.5535 84.388 41.1818 89.9429 50.3803C92.0493 53.8695 97.5726 50.6986 95.486 47.2293C88.7195 36.0574 75.6536 28.4981 61.8474 28.1997Z" fill="#323FFF"/>
</svg>
